<svg width="28" height="28" viewBox="0 0 28 28" fill="none" xmlns="http://www.w3.org/2000/svg">
<path d="M9.09797 17.7416C8.79286 18.0467 8.79286 18.5414 9.09797 18.8465C9.40307 19.1516 9.89772 19.1516 10.2028 18.8465L19.2284 9.82091C19.5335 9.5158 19.5335 9.02116 19.2284 8.71605C18.9233 8.41095 18.4286 8.41095 18.1235 8.71605L9.09797 17.7416Z" fill="#434553"/>
<path d="M18.1236 18.8464C18.4287 19.1515 18.9233 19.1515 19.2284 18.8464C19.5335 18.5413 19.5335 18.0467 19.2284 17.7416L10.2029 8.71601C9.89775 8.41091 9.4031 8.41091 9.098 8.71601C8.79289 9.02112 8.79289 9.51576 9.098 9.82087L18.1236 18.8464Z" fill="#434553"/>
<rect x="0.75" y="0.75" width="26.5" height="26.5" rx="13.25" stroke="#434553" stroke-width="1.5"/>
</svg>
